<svg xmlns="http://www.w3.org/2000/svg" xmlns:v="https://vecta.io/nano" viewBox="51.22 0.01 408.81 512.01" width="282.622000219021" height="353.82949636795405"><g fill="#264595"><path d="M141.41.01l.7 3.79c1.82 13.04 6.17 25.81 12.62 37.31 7.43 13.61 17.53 25.53 28.9 35.91 14.73 13.61 31.56 24.69 48.39 35.63 4.91 3.23 9.82 6.45 14.45 10.1 2.81 2.24 5.61 4.63 7.43 7.85.28.56.84 1.82-.28 1.96-1.96-.14-3.65-1.26-5.47-1.82-9.12-3.65-18.52-6.73-28.05-9.26-8.98-2.52-18.23-4.21-27.07-7.29-5.61-2.1-10.94-4.77-15.57-8.7-12.06-9.96-22.72-21.88-30.16-35.77-7.15-13.04-11.08-27.91-10.8-42.78.14-9.26 1.68-18.37 4.91-26.93z"/><path d="M52.06 39.14c6.45 12.62 15.71 23.85 26.37 33.1 12.62 10.94 27.63 18.94 43.2 25.25 25.25 10.1 52.04 15.71 78.27 22.3 17.11 4.21 34.51 8.42 50.64 15.71 4.77 2.24 9.54 4.77 13.89 7.71-2.38-3.09-4.63-6.59-5.19-10.52a28.75 28.75 0 0 1 0-4.91c1.26 1.96 2.38 4.35 4.63 5.33 1.12.42 2.24-.56 2.52-1.54.56-1.54.28-3.23-.56-4.63-1.96-3.51-5.47-5.89-7.15-9.4 2.38.28 5.05.42 7.29-.84 4.21-2.1 6.45-6.87 6.87-11.5.28-2.52-.28-4.91-.84-7.29-.56-1.82-1.68-3.37-2.24-5.05 2.95.84 5.61 2.81 7.15 5.47.98 1.68 1.4 3.51 1.96 5.47 0-2.95.14-6.03 1.4-8.7.7-1.82 1.96-3.37 3.23-4.77.98 1.68 1.68 3.65 3.23 4.91a3.63 3.63 0 0 0 4.07.42 147.48 147.48 0 0 1 27.35-10.8c1.96-.56 3.93-.98 5.89-1.68 2.52-1.12 3.65-3.79 6.03-5.05 2.38-1.4 5.33-1.4 7.71-.28 1.68.7 3.51 1.82 4.21 3.65.28 1.68-.98 3.23-.98 4.91-.28 1.82 1.54 3.09 1.54 4.91s-.7 3.37-1.4 5.05-1.54 3.51-3.09 4.49c-1.26.84-2.67 1.12-3.93 1.68-4.35 1.68-8.56 3.79-12.06 6.73-4.77 4.07-8.56 9.12-11.78 14.45-1.12 1.96-2.1 4.07-3.93 5.47-2.52 2.1-5.89 2.67-9.12 2.1-.56 0-1.12-.42-1.54.14-.28.7.56.98.98 1.26 3.65.7 7.43.98 11.08.7 2.67 5.89 7.57 10.24 11.92 14.87 5.61 5.89 11.22 12.06 14.87 19.5 3.37 6.87 4.63 14.87 3.09 22.3-.98 5.33-3.09 10.24-5.61 14.87 1.54.28 3.51 0 4.21-1.54 2.38-4.77 4.07-9.96 4.77-15.29.28-2.81.14-5.75 0-8.56 4.77 3.23 10.38 5.47 16.27 5.89 11.92.98 23.28-3.09 34.51-6.73 3.93-1.26 8.14-3.23 12.2-1.82 6.03 1.82 11.5 4.63 17.39 6.87 7.01 2.81 14.31 5.19 21.74 7.01 1.68.42 3.37.56 4.77 1.68.98.84 0 2.24.14 3.37-.28 2.1.98 3.79 2.38 5.19 2.95 2.81 6.45 5.33 8.84 8.7.7.98 1.4 2.95-.14 3.51-2.95.56-5.89-.28-8.84-.84-5.89-1.4-11.92-2.95-17.53-5.19-1.4-.7-3.09-1.26-3.93-2.67-.14-2.95 3.51-4.77 2.81-7.71-.84-1.96-2.81-2.81-4.63-3.51-6.87-2.67-13.89-4.63-20.76-7.01-2.1-.7-4.21-1.54-6.45-1.68-1.96-.14-3.23 1.54-4.77 2.38-.98.7-2.38 1.12-3.09 2.38 1.96 2.95 4.63 5.33 7.15 7.71 8.84 8 19.36 14.31 30.16 19.36 1.4.7 3.09.98 4.07 2.38 0 1.4-1.26 2.67-.7 4.21.84 2.67 3.37 4.35 5.47 6.03 2.52 2.1 5.47 4.21 7.29 7.01.7.84.7 2.38-.42 2.81-1.82.56-3.79.28-5.75.14-7.01-.98-14.03-2.38-20.76-4.63-1.54-.56-3.23-.98-4.35-2.24-.7-1.26.14-2.52.28-3.79.98-3.37-.42-6.87-2.24-9.68-3.51-5.33-8.56-9.4-13.75-12.9-4.63-2.95-9.54-5.89-14.87-7.15-2.95-.98-5.75.98-8.28 2.38-6.87 4.35-13.47 8.98-20.62 13.04-15.15 8.84-31.84 15.43-49.23 18.09-2.52.42-5.05 1.26-7.29 2.38-15.15 7.01-31.98 9.4-48.53 8.84-3.93-.28-7.85-.28-11.78-.84-5.47-.56-10.94-1.54-16.41-2.38-3.65-.28-7.57-.7-10.94 1.12-5.05 2.81-8.7 7.29-12.9 11.08-11.36 10.24-25.39 16.97-39.84 21.46-7.15 2.24-14.59 4.07-21.18 8-3.93 2.38-7.29 5.75-9.54 9.82-1.26 2.24-2.24 4.63-3.37 7.01-3.51 7.43-7.57 14.73-12.76 21.18 7.85-2.38 15.15-6.73 20.48-12.9 4.35-4.91 7.29-10.94 9.68-16.97 1.12-2.67 1.82-5.75 3.93-7.85 1.96-2.1 4.91-2.81 7.57-3.51 15.15-4.35 30.02-10.38 42.36-20.2 3.79-2.95 7.29-6.31 10.66-9.68 2.38-2.24 4.91-4.49 8-5.33 4.35-.84 8.84 0 13.19.7-2.81 4.91-6.73 9.12-10.8 12.9-10.24 9.54-23 15.71-35.77 21.18-7.57 3.23-15.29 6.17-22.16 10.52-3.93 2.52-7.43 5.61-10.1 9.4-7.57 10.66-16.97 20.2-27.91 27.49-15.01 9.96-32.12 16.41-49.79 19.78-.98.28-2.38-.42-2.24-1.68-.14-1.4 1.12-2.1 2.24-2.52 7.71-3.51 13.89-10.1 17.81-17.53.7-1.26 1.12-2.81 2.24-3.93 2.38-1.54 5.33-.42 7.85-.7 3.23 0 5.75-2.1 7.71-4.49 2.52-3.09 4.35-6.59 5.75-10.24 2.1-5.33 3.65-10.94 4.21-16.69.28-2.95 1.26-6.17 3.79-8 2.81-1.96 6.03-3.09 9.12-4.35 7.01-2.95 13.75-7.29 18.8-13.04 4.21-4.63 7.29-9.96 9.68-15.71 2.81-6.17 4.63-12.62 7.43-18.8.7-1.82 1.82-3.37 2.24-5.33-2.24 1.4-3.65 3.79-5.47 5.61-5.19 5.61-11.36 11.22-19.08 12.48-9.26 1.68-18.09-3.37-27.35-2.67-2.95.14-6.03 1.12-8 3.37-1.96 2.1-3.09 5.05-2.95 8 0 2.52 1.68 4.91 4.07 5.61 2.24.56 4.63.14 6.59-.98 1.4-.7 2.24-2.1 3.51-3.09-.28 3.23-2.1 6.17-4.77 7.85-4.77 2.95-11.78 2.67-15.71-1.54-2.95-3.23-3.23-8.28-1.12-12.06 2.1-3.93 6.45-6.17 10.24-8.14 2.38-1.26 5.05-2.38 7.15-4.07-6.31.56-12.9 2.24-17.95 6.17-5.47 4.21-8.7 11.08-8.7 17.95-.14 6.03 2.38 12.2 6.87 16.27 3.09 2.81 7.29 4.35 11.36 4.35 4.35-.14 8.56-1.82 11.64-4.91.7-.84 1.4-1.68 2.24-2.38-1.68 4.35-5.19 8.14-9.54 9.82-6.59 2.81-14.31 2.1-20.76-.84-6.73-3.09-12.48-9.12-13.89-16.55-1.4-5.75 0-11.64 1.96-16.97-3.79 1.68-7.71 2.81-11.78 2.95-2.38-.14-5.05-.56-6.73-2.38-1.82-1.96-1.4-5.19-.14-7.43 1.68-2.81 3.93-5.47 6.73-7.15-.42 1.54-.98 3.09-.56 4.63.7 2.67 3.37 4.07 5.89 4.35 3.09.28 6.17-.98 8.56-2.81 3.51-2.81 6.17-6.45 8.84-9.96 3.23-4.07 6.73-8.28 11.22-10.94 3.93-2.24 8.7-3.09 13.19-2.81 1.68 0 3.51.56 4.91-.7-.42-.98-1.26-1.82-2.38-1.96-3.79-.84-7.57.7-11.5.56-3.37-.14-6.73-.84-9.54-2.95-3.37-2.52-5.05-7.43-3.51-11.36 1.12-2.95 4.07-4.63 7.15-5.19 2.52-.28 5.33-.28 7.57 1.12-2.24 0-4.63-.14-6.59 1.12-1.82.98-2.67 3.23-2.1 5.19.7 2.95 3.37 4.91 6.17 5.75 7.43 2.38 15.29-.28 22.86 1.12 8.98 1.12 16.83 5.89 25.53 7.71 6.59 1.54 13.47.7 19.64-2.1 7.57-3.37 14.03-8.7 21.46-12.62 6.59-3.65 14.17-5.47 21.46-6.73 8.84-1.26 17.67-1.26 26.51-.84 3.09 0 6.73-.56 8.7-3.23 2.1-2.81 1.12-6.87-1.26-9.26-3.23-3.23-8-4.35-12.48-4.21-6.59.28-13.04 2.24-19.22 4.49-15.85 5.61-30.86 14.45-47.55 17.39-5.47 1.12-11.22 1.12-16.83.84-6.31-.7-12.62-2.52-18.09-5.75-8.14-4.49-15.01-11.08-20.48-18.52 6.03 3.23 12.62 5.61 19.5 6.73 10.24 1.68 20.62.7 30.72-1.4 17.11-3.65 33.66-9.96 51.06-12.48 9.54-1.26 19.5-1.54 28.9.84 5.05 1.4 10.38 3.65 13.75 8 1.12 1.4 1.54 3.09 2.38 4.63.14-4.35-2.1-8.42-5.19-11.22-6.17-5.89-14.31-8.98-22.44-10.8-12.9-2.81-26.23-3.09-39.42-2.52-5.33 0-10.66.42-15.99.7-11.78.28-23.56 1.12-35.35.28-7.43-.28-14.87-1.26-22.02-2.95-12.48-2.81-24.55-8.56-33.94-17.39-11.92-10.94-19.78-25.53-24.83-40.68-1.12-3.37-2.24-6.59-2.95-10.1 7.71 11.08 17.95 20.2 29.04 27.91 14.31 9.82 30.72 16.69 47.55 20.9 22.3 5.61 45.45 6.87 68.31 8.84 4.63.42 9.4.98 14.03 1.54 9.82 1.4 19.78 2.95 28.9 6.87 6.87 2.81 13.47 7.15 17.95 13.19 4.07 5.61 6.17 12.62 6.17 19.5 1.54-6.45.84-13.61-2.38-19.5-3.51-6.73-9.68-11.5-16.27-14.87-12.48-6.17-26.37-8.56-39.98-10.1-21.18-1.96-42.64-3.37-63.54-7.29-13.61-2.52-27.07-6.17-39.7-11.92-13.33-6.03-25.53-14.45-35.35-25.25-9.12-9.82-15.85-21.88-18.66-35.07-1.26-5.05-1.4-10.38-1.82-15.57.42-2.65.7-4.19.84-5.6m243.22 67.47c1.96-2.24 4.63-3.79 7.29-5.19 2.67-1.4 5.19-3.93 5.05-7.01-5.74 1.54-10.51 6.45-12.34 12.2m1.55 59.33c6.73 1.54 13.04 4.63 17.81 9.68 6.03 5.89 9.4 14.31 9.26 22.72 0 2.24-.56 4.35-.84 6.59.98-.14 1.96.28 2.81-.28 1.26-3.93 1.26-8.28.84-12.34-.98-6.31-3.93-12.2-8.56-16.69-5.47-5.75-13.33-8.97-21.32-9.68z"/><path d="M133.98 51.35c4.49 14.59 12.06 28.19 21.88 39.84 5.61 6.73 11.92 12.9 18.52 18.66-3.65-.7-7.15-1.82-10.8-2.67-4.91-1.4-9.82-2.24-14.59-4.07-2.81-1.12-5.33-2.95-7.15-5.33-4.21-5.61-5.89-12.62-7.01-19.36-1.13-8.98-1.27-18.1-.85-27.07zm-46.43 90.61c4.91 4.77 10.8 8.7 17.11 11.36 9.54 4.07 19.78 5.89 30.02 6.73 3.51.42 7.15.28 10.66.56 6.17.28 12.34-.14 18.52-.14 17.39-.7 34.93-2.67 52.32-2.1 6.59.42 13.19.98 19.5 3.37-2.1.14-4.21-.28-6.31-.14-15.29-.14-30.3 3.51-45.03 7.15-12.62 3.09-25.39 6.45-38.43 6.73-6.03.14-12.06-.28-17.95-1.82-10.94-2.52-21.18-8.42-29.18-16.27-4.78-4.35-8.71-9.54-11.23-15.43zm188.8 138.16c19.5.14 38.99-1.12 58.49.28 16.83 1.26 34.23 4.63 48.81 13.61 4.91 3.09 9.26 7.15 12.06 12.2 2.81 5.05 3.93 11.22 2.67 16.97-1.82 8.7-8.28 15.85-16.13 19.64-5.89 2.95-12.48 4.49-18.8 6.45 8.42 2.24 16.69 5.05 24.13 9.54 6.17 3.65 11.64 8.7 14.87 15.01 3.65 6.73 4.63 15.01 2.38 22.3-1.96 7.01-6.59 13.04-12.2 17.53-5.33 4.21-11.36 7.15-17.67 9.4-10.24 3.79-20.9 5.61-31.7 6.87-10.52 1.12-21.04 1.54-31.56 1.4h-64.66c.14-3.65.84-7.43 1.12-11.08-8.7 5.05-18.23 8.14-27.91 10.24-14.17 3.09-28.75 3.93-43.2 2.81-10.66-.98-21.32-3.09-31.14-7.57-5.89-2.67-11.5-6.45-15.85-11.22-7.57-8.14-11.36-18.94-12.48-29.88-.84-6.45-.42-12.9-.56-19.36v-34.23c6.45-3.51 12.34-8 17.81-12.9 4.91-4.49 9.54-9.4 13.47-14.73 2.95-4.07 6.03-8.28 10.1-11.22 4.91-3.51 10.52-5.75 15.99-8.28 3.09-1.4 6.17-2.67 9.26-3.79-3.93 6.73-6.45 14.31-7.29 22.02-.7 5.47-.56 10.94-.56 16.41v40.54c-.14 8.28-.14 16.83 2.52 24.83 1.68 5.47 4.91 10.66 9.82 13.89 6.17 4.21 13.61 5.75 20.9 5.89 6.45 0 13.04-1.12 18.8-4.21a23.31 23.31 0 0 0 9.4-9.4c2.81-5.19 3.79-11.22 3.93-17.11V313.5c0-6.87 0-13.61-.84-20.34-.56-4.49-1.82-8.84-3.09-13.19l39.11.15m24.12 25.25c-.28 11.78-.14 23.71-.14 35.49 7.71 0 15.43-.42 22.72-2.95 4.63-1.68 9.26-4.35 11.64-8.7 2.1-3.51 2.52-7.85.84-11.64-1.82-4.35-5.75-7.15-10.1-8.84-7.7-3.22-16.54-3.36-24.96-3.36m-.14 59.47v39.98c8.28-.14 16.69-.56 24.69-2.95 4.35-1.4 8.7-3.23 12.06-6.31 3.37-3.09 5.75-7.71 5.33-12.48-.28-4.07-2.67-7.85-5.89-10.38-3.65-2.81-8.14-4.35-12.62-5.61-7.58-1.83-15.57-2.25-23.57-2.25z"/></g><path d="M126.26 470.32c4.35-4.49 11.22-6.45 17.39-5.33 3.23.56 6.03 2.1 8.84 3.65v8.84c-2.38-1.54-4.91-3.23-7.71-3.79-4.07-.84-8.98 0-11.64 3.37-2.67 3.51-2.95 8-2.95 12.2.14 4.07.42 8.42 3.23 11.64 2.52 2.95 7.01 3.09 10.38 1.4v-7.85c-1.68-.14-3.37-.14-5.19 0v-8h15.57a472.44 472.44 0 0 1 0 19.92c-.84 1.12-2.24 1.68-3.37 2.52-2.81 1.54-5.75 2.95-8.98 2.81-2.1 0-4.35.14-6.45-.14-4.63-.7-8.56-3.79-11.22-7.57-3.79-5.47-4.91-12.48-4.35-18.94.28-5.33 2.52-10.8 6.45-14.73zm133.12-5.19c4.91-.98 10.38.14 14.17 3.51 4.77 4.21 7.15 10.52 7.43 16.69.56 7.57-.7 15.85-5.89 21.6-2.67 2.95-6.45 5.19-10.52 5.05-2.67-.14-5.33.42-7.85-.84-5.61-2.24-9.26-7.71-10.8-13.47-1.26-4.91-1.54-9.96-.7-15.01a24.78 24.78 0 0 1 4.91-11.92c2.23-2.66 5.46-4.9 9.25-5.61m1.54 8.98c-3.09.98-4.49 4.21-5.19 7.01-.84 4.49-.84 9.12-.14 13.61.42 2.24 1.12 4.63 2.67 6.45 1.82 1.96 4.91 2.24 7.29 1.26 2.1-.98 3.23-3.23 3.93-5.33 1.26-4.49 1.12-9.12.7-13.75-.42-3.09-1.26-6.73-3.93-8.56-1.4-.97-3.51-.97-5.33-.69zm-74.34-8.69h12.34c4.21 0 8.7.42 12.34 2.67 2.67 1.54 4.49 4.35 5.05 7.29.56 3.51.14 7.43-2.1 10.38-1.26 1.54-2.95 2.67-4.63 3.65 2.24 1.96 3.65 4.49 4.35 7.29 1.4 5.05 3.23 9.96 4.49 15.01-3.65 0-7.43.14-11.08 0-.84-4.07-1.96-8.14-2.95-12.06-.56-1.82-.98-3.93-2.1-5.47-1.26-1.54-3.37-1.4-5.19-1.4-.14 6.31 0 12.76 0 19.08h-10.52v-46.44m10.52 8.13v10.8c1.82 0 3.65.14 5.47-.14 1.26-.28 2.52-.98 2.95-2.24.84-2.1.84-4.77-.56-6.73-1.97-2.11-5.2-1.55-7.86-1.69zm110.81-8.13c3.51.14 7.01-.14 10.52.14v31c0 1.54.14 3.23.98 4.49 2.38 3.51 9.4 2.81 10.1-1.68.56-3.93.14-7.85.28-11.78v-22.02h10.52l.14 29.74c0 4.07-.7 8.28-3.23 11.5-2.52 3.37-6.87 5.47-11.08 5.19-3.09-.14-6.17.42-8.98-.84-4.07-1.54-7.29-5.19-8.28-9.4-1.12-3.65-.7-7.43-.7-11.08-.27-8.43-.41-16.85-.27-25.26zm62.14 0h13.89c3.93.14 8.14.84 11.36 3.23 3.09 2.24 4.77 6.03 4.77 9.82.28 4.21-.98 8.7-4.35 11.36-4.21 3.37-9.96 3.65-15.15 3.51-.14 6.17 0 12.2 0 18.38-3.51.14-7.01 0-10.66 0l.14-46.3m10.66 8.13c-.14 3.79 0 7.71-.14 11.5 2.24 0 4.49.28 6.59-.7 1.54-.7 2.38-2.38 2.38-3.93.14-1.96.14-4.35-1.54-5.61-2.1-1.54-4.91-1.12-7.29-1.26z" fill="#9fa0a4"/></svg>